<svg xmlns="http://www.w3.org/2000/svg" width="132" height="30" fill="none" viewBox="0 0 132 30"><path fill="#2d65f6" fill-rule="evenodd" d="M22 15.061C22 9.505 17.523 5 12 5S2 9.505 2 15.061c0 5.022 3.657 9.184 8.438 9.939v-7.03h-2.54V15.06h2.54v-2.216c0-2.522 1.492-3.915 3.777-3.915 1.094 0 2.238.197 2.238.197v2.476h-1.26c-1.243 0-1.63.775-1.63 1.57v1.888h2.773l-.443 2.908h-2.33V25c4.78-.755 8.437-4.917 8.437-9.939" clip-rule="evenodd"/><path fill="url(#a)" d="M34.108 13.117q-.494 0-.754-.273t-.26-.78v-3.77l.416 1.157-3.068-4.355a.895.895 0 0 1 .104-1.144q.234-.234.663-.234.312 0 .559.156.26.156.494.494l2.08 3.003h-.416l2.08-3.003q.247-.351.481-.494.247-.156.572-.156.416 0 .65.221a.72.72 0 0 1 .247.533q.013.312-.221.65l-3.029 4.329.403-1.157v3.77q0 1.053-1.001 1.053m7.993.026q-1.092 0-1.872-.312t-1.196-.897q-.416-.598-.416-1.43 0-.65.26-1.157.274-.507.741-.819a2.46 2.46 0 0 1 1.053-.39v.338a2.33 2.33 0 0 1-1.326-.793q-.495-.624-.494-1.495 0-.78.39-1.339.404-.56 1.131-.858.74-.3 1.73-.299 1 0 1.728.299.729.3 1.131.858.403.56.403 1.339 0 .585-.234 1.066a2.04 2.04 0 0 1-.637.793q-.403.312-.936.403v-.312q.898.13 1.456.767.573.638.572 1.599 0 .832-.416 1.43-.416.585-1.196.897t-1.872.312m0-1.547q.807 0 1.222-.312.416-.312.416-.923 0-.61-.416-.91-.415-.312-1.222-.312-.805 0-1.222.312-.416.3-.416.91t.416.923q.417.312 1.222.312m0-4.004q.442 0 .754-.143a1 1 0 0 0 .481-.416q.17-.273.17-.624 0-.546-.378-.858-.363-.312-1.027-.312t-1.027.312-.364.858.364.871q.364.312 1.027.312m10.438 5.551q-.702 0-1.261-.273a2.16 2.16 0 0 1-.871-.741 1.86 1.86 0 0 1-.312-1.053q0-.702.364-1.105.364-.415 1.183-.585.82-.182 2.171-.182h.689v1.014h-.676q-.663 0-1.079.078-.404.064-.585.234-.17.17-.169.468 0 .364.247.598.26.234.741.234.377 0 .663-.169.3-.182.468-.481a1.45 1.45 0 0 0 .169-.702V8.983q0-.572-.26-.806-.26-.247-.884-.247-.351 0-.767.091a5 5 0 0 0-.897.273q-.286.13-.507.065a.64.64 0 0 1-.338-.26.8.8 0 0 1-.117-.416.8.8 0 0 1 .13-.442.76.76 0 0 1 .429-.325 5.6 5.6 0 0 1 2.145-.429q1 0 1.638.299.65.286.975.897.325.598.325 1.547v2.886q0 .48-.234.741-.234.26-.676.26t-.689-.26q-.234-.26-.234-.741v-.481l.091.078a1.67 1.67 0 0 1-.975 1.261q-.39.17-.897.169m8.211 0q-.897 0-1.508-.299-.597-.3-.897-.871-.286-.572-.286-1.443V8.086h-.546q-.363 0-.572-.195-.195-.195-.195-.533 0-.365.195-.546.209-.195.572-.195h.546v-.988q0-.494.26-.741.26-.26.728-.26.481 0 .728.26.247.247.247.741v.988h1.235q.365 0 .56.195.195.181.194.546 0 .338-.195.533t-.559.195h-1.235v2.366q0 .546.247.819.26.273.82.273.194 0 .363-.039a2 2 0 0 1 .312-.052.35.35 0 0 1 .3.117q.116.117.116.533 0 .312-.104.546a.64.64 0 0 1-.364.338 2 2 0 0 1-.468.104q-.285.052-.494.052m6.95-.026q-.494 0-.767-.273-.26-.273-.26-.793V4.888q0-.507.273-.78t.78-.273h4.446q.39 0 .585.208.208.195.208.572 0 .39-.208.598-.195.195-.585.195h-3.484v2.236h3.198q.39 0 .598.208.208.195.208.572t-.208.585-.598.208h-3.198v2.834q0 1.065-.988 1.066m8.122.026q-.702 0-1.26-.273a2.16 2.16 0 0 1-.872-.741 1.86 1.86 0 0 1-.312-1.053q0-.702.364-1.105.364-.415 1.183-.585.82-.182 2.171-.182h.69v1.014h-.677q-.663 0-1.079.078-.403.064-.585.234-.168.17-.169.468 0 .364.247.598.26.234.741.234.378 0 .663-.169.3-.182.468-.481a1.45 1.45 0 0 0 .17-.702V8.983q0-.572-.26-.806-.261-.247-.885-.247-.351 0-.767.091a5 5 0 0 0-.897.273q-.286.13-.507.065a.64.64 0 0 1-.338-.26.8.8 0 0 1-.117-.416.8.8 0 0 1 .13-.442.76.76 0 0 1 .43-.325 5.6 5.6 0 0 1 2.144-.429q1 0 1.638.299.65.286.975.897.325.598.325 1.547v2.886q0 .48-.234.741-.234.26-.676.26-.441 0-.689-.26-.234-.26-.234-.741v-.481l.091.078a1.67 1.67 0 0 1-.975 1.261q-.39.17-.897.169m8.185 0q-1.04 0-1.82-.403a2.9 2.9 0 0 1-1.183-1.17q-.416-.754-.416-1.781 0-.766.235-1.378.233-.61.676-1.04a3 3 0 0 1 1.092-.65 4.1 4.1 0 0 1 2.275-.13q.455.09.897.325a.64.64 0 0 1 .35.338q.105.208.079.442a.8.8 0 0 1-.17.403.67.67 0 0 1-.338.234q-.207.053-.468-.078a2 2 0 0 0-.52-.208 2 2 0 0 0-.493-.065q-.39 0-.69.13-.298.117-.507.351a1.7 1.7 0 0 0-.311.559q-.105.338-.104.78 0 .858.416 1.352.428.48 1.195.481.235 0 .495-.052.26-.065.52-.208.26-.13.468-.065a.58.58 0 0 1 .325.247.7.7 0 0 1 .142.403.8.8 0 0 1-.078.442.65.65 0 0 1-.337.325 3.6 3.6 0 0 1-.884.312q-.443.104-.846.104m6.29 0q-1.131 0-1.95-.403a3.04 3.04 0 0 1-1.248-1.157q-.43-.754-.43-1.768.001-.988.416-1.729a2.95 2.95 0 0 1 1.158-1.17 3.4 3.4 0 0 1 1.703-.429q.689 0 1.248.234.558.22.962.65.402.416.61 1.027.21.598.209 1.339 0 .247-.156.377-.157.117-.456.117h-4.082V9.217h3.276l-.207.182q0-.533-.156-.884a1.14 1.14 0 0 0-.456-.546q-.285-.182-.715-.182-.48 0-.819.221-.337.221-.52.637-.18.416-.181 1.001v.104q0 .988.454 1.456.469.468 1.379.468.311 0 .715-.078t.754-.247q.298-.143.532-.091a.55.55 0 0 1 .364.208.7.7 0 0 1 .144.39.74.74 0 0 1-.091.442.9.9 0 0 1-.39.351 3.5 3.5 0 0 1-1.002.364q-.545.13-1.065.13m7.758 0q-.766 0-1.365-.377-.585-.39-.78-1.027l.143-.429v.806q0 .48-.247.741-.246.26-.715.26t-.728-.26q-.247-.26-.247-.741V4.719q0-.494.247-.741.26-.26.741-.26.468 0 .715.26.26.248.26.741V7.8h-.156q.208-.585.793-.949t1.34-.364q.844 0 1.468.403t.975 1.144q.351.74.351 1.768 0 1.027-.351 1.781-.35.754-.988 1.157-.624.403-1.456.403m-.585-1.469q.416 0 .728-.208.326-.208.494-.611.183-.415.182-1.053 0-.949-.39-1.391a1.27 1.27 0 0 0-1.014-.455q-.416 0-.74.195-.313.195-.495.611-.182.403-.182 1.04 0 .95.39 1.417.39.455 1.027.455m7.649 1.469q-1.028 0-1.794-.403a2.84 2.84 0 0 1-1.17-1.157q-.416-.754-.416-1.781 0-.766.234-1.378a2.84 2.84 0 0 1 1.755-1.703q.624-.234 1.391-.234 1.027 0 1.781.403.767.403 1.183 1.144.429.74.429 1.768 0 .78-.247 1.391a3 3 0 0 1-.676 1.053 2.9 2.9 0 0 1-1.079.676q-.624.22-1.391.221m0-1.469q.429 0 .741-.208t.494-.611q.182-.415.182-1.053 0-.949-.39-1.391-.39-.455-1.027-.455-.416 0-.741.195-.312.195-.494.611-.17.403-.169 1.04 0 .95.39 1.417.39.455 1.014.455m7.655 1.469q-1.028 0-1.794-.403a2.84 2.84 0 0 1-1.17-1.157q-.416-.754-.416-1.781 0-.766.234-1.378a2.84 2.84 0 0 1 1.755-1.703q.624-.234 1.391-.234 1.027 0 1.781.403.767.403 1.183 1.144.429.74.429 1.768 0 .78-.247 1.391a3 3 0 0 1-.676 1.053 2.9 2.9 0 0 1-1.079.676q-.624.22-1.391.221m0-1.469q.429 0 .741-.208t.494-.611q.182-.415.182-1.053 0-.949-.39-1.391-.39-.455-1.027-.455-.416 0-.741.195-.312.195-.494.611-.17.403-.169 1.04 0 .95.39 1.417.39.455 1.014.455m5.575 1.443q-.48 0-.741-.26-.246-.26-.247-.741V4.719q0-.494.247-.741.261-.26.741-.26.469 0 .715.26.26.248.26.741v4.537h.026l1.885-2.093q.286-.325.52-.481.248-.17.65-.169.404 0 .611.208a.67.67 0 0 1 .221.507q.014.286-.247.585l-1.989 2.223v-.741l2.21 2.548q.247.3.208.598a.7.7 0 0 1-.26.494q-.234.182-.598.182-.441 0-.715-.169a2.3 2.3 0 0 1-.533-.52l-1.963-2.184h-.026v1.872q0 1-.975 1.001"/><path fill="#000" fill-opacity=".5" d="M33.604 20.727V28h-1.317v-5.99h-.043l-1.7 1.086v-1.207l1.807-1.162zm2.253 7.351a.76.76 0 0 1-.554-.227.74.74 0 0 1-.227-.554.73.73 0 0 1 .227-.547.76.76 0 0 1 .554-.227.75.75 0 0 1 .543.227.75.75 0 0 1 .124.941.8.8 0 0 1-.284.284.74.74 0 0 1-.383.103m4.46.021q-.767 0-1.364-.262a2.3 2.3 0 0 1-.937-.732 1.9 1.9 0 0 1-.366-1.083h1.335a.9.9 0 0 0 .196.515q.177.216.472.337.294.12.66.121.39 0 .693-.135.301-.138.472-.383a.95.95 0 0 0 .167-.565 1 1 0 0 0-.17-.582 1.14 1.14 0 0 0-.505-.395 2 2 0 0 0-.788-.142h-.643v-1.015h.643q.38 0 .664-.132.288-.13.451-.369a.95.95 0 0 0 .16-.558.97.97 0 0 0-.139-.536.94.94 0 0 0-.394-.358 1.3 1.3 0 0 0-.593-.128q-.333 0-.618.12-.284.122-.458.345a.87.87 0 0 0-.184.526h-1.268q.014-.611.351-1.073.341-.466.91-.724a3 3 0 0 1 1.274-.263q.729 0 1.264.273.54.27.835.728.295.459.295 1.012.003.615-.362 1.03a1.7 1.7 0 0 1-.952.544v.056q.767.106 1.175.569.412.457.409 1.14 0 .61-.348 1.093-.345.48-.952.753-.604.273-1.385.273m3.974-7.372h1.613l2.159 5.27h.085l2.16-5.27h1.611V28h-1.264v-4.996h-.067l-2.01 4.975h-.945l-2.01-4.986h-.067V28h-1.264zm14.25 1.819v.994h-3.225v-.994zM56.122 28v-5.97q0-.55.227-.916.231-.366.618-.547.387-.18.86-.18.333 0 .593.053t.383.095l-.255.995a2 2 0 0 0-.206-.05 1.3 1.3 0 0 0-.277-.028q-.36 0-.508.174-.146.17-.146.49V28zm5.6.107q-.8 0-1.386-.352a2.4 2.4 0 0 1-.909-.984q-.32-.631-.32-1.477 0-.845.32-1.48.324-.637.91-.988.585-.352 1.384-.352.8 0 1.385.352.586.351.906.987.323.636.323 1.481t-.323 1.477q-.32.633-.906.984-.585.352-1.385.352m.006-1.03q.434 0 .725-.238.29-.242.433-.646.146-.405.146-.902 0-.501-.146-.906a1.43 1.43 0 0 0-.433-.65 1.1 1.1 0 0 0-.725-.241q-.443 0-.738.241-.291.242-.437.65-.142.405-.142.906 0 .496.142.901.146.405.437.647.295.238.738.238m4.984-6.35V28h-1.286v-7.273zm2.607 0V28h-1.285v-7.273zm3.701 7.38q-.798 0-1.385-.352a2.4 2.4 0 0 1-.909-.984q-.32-.631-.32-1.477 0-.845.32-1.48.324-.637.91-.988.585-.352 1.384-.352.8 0 1.385.352.586.351.906.987.323.636.323 1.481t-.323 1.477q-.32.633-.906.984-.585.352-1.385.352m.007-1.03q.434 0 .725-.238.29-.242.433-.646.146-.405.146-.902 0-.501-.146-.906a1.43 1.43 0 0 0-.433-.65 1.1 1.1 0 0 0-.725-.241q-.444 0-.738.241-.291.242-.437.65-.142.405-.142.906 0 .496.142.901.146.405.437.647.294.238.738.238m4.667.923-1.54-5.454h1.31l.958 3.835h.05l.98-3.835h1.296l.98 3.813h.054l.944-3.814h1.314L82.496 28h-1.34l-1.022-3.686h-.075L79.038 28zm9.502.107q-.82 0-1.416-.341-.594-.345-.913-.973-.32-.633-.32-1.488 0-.842.32-1.478.323-.639.902-.994.58-.359 1.36-.359.504 0 .952.164.45.16.795.497.348.337.547.86.199.518.199 1.235v.394H85.15v-.866h3.239a1.4 1.4 0 0 0-.16-.657 1.16 1.16 0 0 0-.437-.458 1.23 1.23 0 0 0-.646-.167q-.395 0-.693.192a1.3 1.3 0 0 0-.465.497 1.4 1.4 0 0 0-.167.67v.757q0 .477.174.817.174.338.487.519.312.177.731.177.28 0 .508-.078.228-.082.394-.238a1 1 0 0 0 .252-.387l1.2.135a1.9 1.9 0 0 1-.433.83q-.315.353-.81.548a3.1 3.1 0 0 1-1.129.192M90.71 28v-5.454h1.247v.909h.057q.149-.473.511-.728.366-.26.835-.26.106 0 .237.011.135.007.224.025v1.182a1.4 1.4 0 0 0-.26-.05 2.4 2.4 0 0 0-.337-.024 1.3 1.3 0 0 0-.632.152q-.276.15-.436.416a1.17 1.17 0 0 0-.16.614V28zm8.276-4.013-1.172.128a.9.9 0 0 0-.174-.334.9.9 0 0 0-.326-.252 1.2 1.2 0 0 0-.505-.096q-.4 0-.674.174-.27.175-.267.451a.47.47 0 0 0 .174.387q.181.15.597.245l.93.2q.775.166 1.15.528.38.363.385.948a1.5 1.5 0 0 1-.302.91q-.295.39-.82.61-.526.22-1.208.22-1.002 0-1.612-.419a1.68 1.68 0 0 1-.728-1.175l1.253-.12a.88.88 0 0 0 .362.557q.277.188.721.188.458 0 .735-.188.282-.188.281-.465a.49.49 0 0 0-.181-.387q-.177-.153-.554-.235l-.93-.195q-.785-.164-1.162-.55-.376-.39-.373-.988a1.4 1.4 0 0 1 .274-.873 1.8 1.8 0 0 1 .778-.576 3 3 0 0 1 1.154-.206q.958 0 1.509.409.555.408.685 1.104"/><defs><linearGradient id="a" x1="30" x2="132" y1="9" y2="9" gradientUnits="userSpaceOnUse"><stop stop-color="#2d65f6"/><stop offset="1"/></linearGradient></defs></svg>