<svg xmlns="http://www.w3.org/2000/svg" width="80" height="28" fill="none"><path fill="url(#a)" fill-rule="evenodd" d="M61.507 10.664c-.366 0-.648-.1-.845-.303-.188-.211-.282-.504-.282-.879V4.554c0-.385.094-.678.282-.88.197-.21.48-.316.845-.316.356 0 .628.105.815.317.198.201.297.495.297.879v4.928c0 .375-.094.668-.282.88-.188.201-.464.302-.83.302Zm0-8.488c-.415 0-.736-.091-.964-.274-.217-.192-.326-.46-.326-.807 0-.355.109-.624.326-.807.227-.192.549-.288.964-.288.415 0 .731.096.949.288.217.183.326.452.326.807 0 .346-.109.615-.326.807-.218.183-.534.274-.95.274Zm15.439 8.531c-.86 0-1.602-.149-2.224-.447a3.432 3.432 0 0 1-1.424-1.282c-.326-.557-.489-1.21-.489-1.96 0-.73.158-1.369.475-1.917.316-.557.756-.99 1.32-1.297.573-.317 1.22-.475 1.941-.475.524 0 .999.086 1.424.26.425.163.79.403 1.097.72.306.307.539.687.697 1.138.158.442.237.937.237 1.485 0 .182-.06.321-.178.417-.118.087-.291.13-.519.13h-4.368c.067.465.228.826.484 1.081.356.346.88.519 1.571.519.238 0 .51-.03.816-.087.306-.057.593-.149.86-.274.227-.105.43-.139.608-.1a.637.637 0 0 1 .415.23.753.753 0 0 1 .163.432.805.805 0 0 1-.104.49c-.089.154-.237.284-.445.39a4.08 4.08 0 0 1-1.141.403c-.416.096-.82.144-1.216.144Zm-1.839-4.986c-.084.188-.143.4-.176.634h3.21a2.162 2.162 0 0 0-.172-.778 1.277 1.277 0 0 0-.52-.605c-.217-.135-.488-.202-.815-.202-.365 0-.677.082-.934.245a1.578 1.578 0 0 0-.593.706ZM2.491 27.351c.82.433 1.819.649 2.995.649.543 0 1.092-.048 1.646-.144a9.64 9.64 0 0 0 1.497-.375c.237-.077.405-.202.504-.374a1.26 1.26 0 0 0 .148-.634v-3.344c0-.288-.079-.509-.237-.663-.148-.153-.37-.23-.667-.23H6.049c-.296 0-.524.072-.682.216-.158.134-.237.331-.237.59 0 .25.079.447.237.592.158.144.386.216.682.216h1.335v1.992a7.492 7.492 0 0 1-.682.155c-.376.067-.742.1-1.098.1-1.057 0-1.858-.278-2.401-.835-.534-.557-.801-1.379-.801-2.464 0-.72.114-1.326.34-1.816.238-.5.594-.874 1.068-1.124.475-.26 1.063-.39 1.765-.39.435 0 .835.044 1.2.13.366.077.712.202 1.039.375.247.116.464.154.652.116a.857.857 0 0 0 .474-.289c.129-.153.208-.326.238-.518a.902.902 0 0 0-.06-.563c-.069-.182-.207-.33-.415-.446a5.753 5.753 0 0 0-1.542-.577 7.564 7.564 0 0 0-1.601-.173c-.87 0-1.65.125-2.343.375a4.99 4.99 0 0 0-1.75 1.067 4.552 4.552 0 0 0-1.096 1.657C.124 21.265 0 21.99 0 22.798c0 1.047.213 1.96.638 2.738a4.438 4.438 0 0 0 1.853 1.816ZM13.584 28c-.534 0-1.013-.1-1.438-.303a2.442 2.442 0 0 1-.994-.821 2.016 2.016 0 0 1-.356-1.167c0-.52.139-.927.416-1.225.276-.308.726-.524 1.349-.649.623-.134 1.448-.201 2.476-.201h.533v-.245c0-.423-.098-.721-.296-.894-.198-.182-.534-.274-1.008-.274-.267 0-.559.034-.875.101a5.979 5.979 0 0 0-1.023.303c-.217.096-.41.12-.578.072a.73.73 0 0 1-.386-.288.863.863 0 0 1-.133-.461c0-.173.05-.337.148-.49.099-.164.262-.284.49-.36a6.5 6.5 0 0 1 2.446-.476c.76 0 1.384.11 1.868.331.494.212.865.543 1.112.995.247.441.37 1.013.37 1.714v3.2c0 .355-.088.629-.266.821-.178.192-.435.288-.771.288s-.598-.096-.786-.288c-.178-.192-.267-.466-.267-.822v-.076a1.76 1.76 0 0 1-.282.48c-.188.23-.43.413-.726.548a2.616 2.616 0 0 1-1.023.187Zm1.468-3.242h.518v.288c0 .288-.064.547-.192.778-.129.22-.307.399-.534.533-.217.125-.47.188-.756.188-.366 0-.647-.087-.845-.26a.861.861 0 0 1-.282-.663c0-.22.064-.394.193-.519.138-.125.36-.21.667-.259a7.108 7.108 0 0 1 1.23-.086Zm4.635 2.925c.198.192.48.288.845.288.741 0 1.112-.37 1.112-1.11v-2.896c0-.528.119-.937.356-1.225.237-.288.568-.432.993-.432.366 0 .623.11.771.331.158.212.238.553.238 1.023v3.2c0 .355.098.629.296.821.198.192.475.288.83.288.356 0 .628-.096.816-.288.197-.192.296-.466.296-.822v-2.896c0-.528.119-.937.356-1.225.237-.288.569-.432.994-.432.365 0 .622.11.77.331.159.212.238.553.238 1.023v3.2c0 .355.094.629.281.821.198.192.48.288.845.288.356 0 .628-.096.816-.288.198-.192.297-.466.297-.822v-3.27c0-.673-.09-1.226-.267-1.658-.178-.442-.45-.768-.816-.98-.356-.22-.815-.331-1.379-.331-.583 0-1.102.144-1.556.432-.368.23-.658.532-.87.907-.162-.415-.401-.732-.717-.95-.375-.26-.845-.39-1.408-.39-.564 0-1.053.135-1.468.404a2.448 2.448 0 0 0-.756.76v-.04c0-.355-.094-.624-.282-.806-.188-.192-.46-.288-.816-.288-.345 0-.617.096-.815.288-.188.182-.282.451-.282.807v5.116c0 .355.094.629.282.821ZM36.332 28c-.86 0-1.601-.149-2.224-.447a3.432 3.432 0 0 1-1.423-1.282c-.326-.558-.49-1.21-.49-1.96 0-.73.159-1.37.475-1.917.316-.557.756-.99 1.32-1.297.573-.317 1.22-.475 1.942-.475.524 0 .998.086 1.423.26.425.162.791.403 1.097.72.307.307.54.686.697 1.138.158.442.237.937.237 1.484 0 .183-.059.322-.177.418-.119.087-.292.13-.52.13h-4.367c.066.465.228.825.483 1.08.356.347.88.52 1.572.52.237 0 .509-.03.815-.087.307-.058.593-.149.86-.274.227-.105.43-.139.608-.1a.637.637 0 0 1 .415.23.753.753 0 0 1 .163.432.805.805 0 0 1-.103.49c-.09.154-.238.284-.445.39a4.086 4.086 0 0 1-1.142.403c-.415.096-.82.144-1.216.144Zm-1.838-4.986c-.085.188-.144.4-.176.634h3.21a2.162 2.162 0 0 0-.173-.778 1.277 1.277 0 0 0-.519-.605c-.217-.135-.489-.202-.815-.202-.366 0-.677.081-.934.245a1.578 1.578 0 0 0-.593.706ZM43.476 28c-.435 0-.885-.038-1.35-.115a4.583 4.583 0 0 1-1.245-.39.998.998 0 0 1-.43-.36.873.873 0 0 1-.103-.46.795.795 0 0 1 .148-.419.68.68 0 0 1 .37-.245.762.762 0 0 1 .52.044 6.34 6.34 0 0 0 1.111.345c.337.068.668.101.994.101.425 0 .731-.062.92-.187.197-.135.296-.308.296-.519 0-.192-.065-.336-.193-.432-.129-.096-.316-.163-.564-.202l-1.556-.274c-.613-.105-1.087-.322-1.424-.648-.326-.337-.489-.764-.489-1.283 0-.48.139-.893.415-1.24.277-.355.658-.623 1.142-.806.494-.192 1.053-.288 1.675-.288.445 0 .855.038 1.23.115.377.077.737.202 1.083.375a.756.756 0 0 1 .37.346c.08.144.105.293.075.446a.835.835 0 0 1-.178.418.683.683 0 0 1-.385.245c-.149.039-.322.02-.52-.058a4.35 4.35 0 0 0-.874-.302 3.15 3.15 0 0 0-.771-.101c-.445 0-.766.072-.964.216-.198.135-.296.308-.296.519 0 .163.054.303.163.418.118.105.296.178.533.216l1.557.274c.643.106 1.132.317 1.468.634.336.307.504.73.504 1.268 0 .73-.296 1.307-.89 1.73-.582.412-1.363.619-2.342.619ZM64.63 10.39c.198.192.48.288.845.288.741 0 1.112-.37 1.112-1.11V6.6c0-.48.139-.865.415-1.153.287-.288.667-.432 1.142-.432.376 0 .652.11.83.331.188.212.282.562.282 1.052v3.17c0 .356.094.63.282.822.197.192.474.288.83.288.366 0 .642-.096.83-.288.198-.192.297-.466.297-.821V6.297c0-.672-.094-1.224-.282-1.657-.188-.442-.47-.768-.845-.98-.376-.22-.855-.331-1.438-.331-.574 0-1.088.13-1.542.389-.349.196-.63.46-.845.79v-.055c0-.356-.094-.625-.282-.807-.188-.192-.46-.288-.816-.288-.346 0-.617.096-.815.288-.188.182-.282.451-.282.807v5.116c0 .355.094.629.282.821Zm-8.534-.389c.435.47 1.092.706 1.972.706.119 0 .242-.01.37-.029.13-.01.243-.019.342-.029.247-.047.43-.144.548-.288.119-.153.178-.374.178-.663 0-.326-.034-.542-.104-.648-.059-.115-.168-.163-.326-.144a1.62 1.62 0 0 0-.222.014 1.62 1.62 0 0 1-.223.015c-.286 0-.519-.092-.696-.274-.168-.192-.252-.485-.252-.88V1.37c0-.365-.1-.639-.297-.821-.188-.193-.46-.289-.815-.289-.366 0-.648.096-.846.289-.187.182-.281.456-.281.821v6.5c0 .94.217 1.652.652 2.132Zm-8.343.677c-.366 0-.648-.096-.845-.288-.188-.192-.282-.466-.282-.821V4.453c0-.356.094-.625.282-.807.197-.192.47-.288.815-.288.356 0 .628.096.816.288.187.182.281.451.281.807v.055c.215-.33.497-.594.845-.79.455-.26.97-.39 1.542-.39.584 0 1.063.111 1.439.332.375.212.657.538.845.98.188.433.281.985.281 1.657V9.57c0 .355-.099.629-.296.821-.188.192-.465.288-.83.288-.356 0-.633-.096-.83-.288-.188-.192-.282-.466-.282-.821v-3.17c0-.49-.094-.841-.282-1.053-.178-.22-.455-.331-.83-.331-.475 0-.855.144-1.142.432-.277.288-.415.673-.415 1.153V9.57c0 .74-.37 1.11-1.112 1.11Zm-10.6-.62c.781.433 1.686.65 2.714.65.78 0 1.487-.126 2.12-.376a4.666 4.666 0 0 0 1.63-1.066A4.755 4.755 0 0 0 44.67 7.61c.248-.644.371-1.364.371-2.162 0-1.047-.217-1.96-.652-2.738A4.509 4.509 0 0 0 42.594.88c-.771-.432-1.68-.648-2.728-.648-.771 0-1.478.124-2.12.374a4.666 4.666 0 0 0-2.684 2.71c-.237.634-.356 1.35-.356 2.147 0 1.047.213 1.964.638 2.752a4.705 4.705 0 0 0 1.809 1.845Zm4.196-1.642c-.405.26-.9.389-1.482.389-.87 0-1.547-.293-2.032-.88-.484-.595-.726-1.416-.726-2.463 0-.702.109-1.302.326-1.802.218-.5.534-.879.949-1.138.415-.26.91-.39 1.483-.39.88 0 1.561.294 2.046.88.484.576.726 1.393.726 2.45 0 .691-.113 1.292-.34 1.801-.218.5-.535.884-.95 1.153Zm-15.02 2.291c-.86 0-1.602-.149-2.225-.447a3.431 3.431 0 0 1-1.423-1.282c-.326-.557-.49-1.21-.49-1.96 0-.73.159-1.369.475-1.917.316-.557.756-.99 1.32-1.297.573-.317 1.22-.475 1.942-.475.524 0 .998.086 1.423.26.425.163.791.403 1.098.72.306.307.538.687.696 1.138.159.442.238.937.238 1.485 0 .182-.06.321-.178.417-.119.087-.292.13-.52.13h-4.367c.067.465.228.826.483 1.081.356.346.88.519 1.572.519.237 0 .509-.03.815-.087.307-.057.593-.149.86-.274.227-.105.43-.139.608-.1a.637.637 0 0 1 .415.23.754.754 0 0 1 .163.432.806.806 0 0 1-.104.49c-.088.154-.237.284-.444.39a4.08 4.08 0 0 1-1.142.403c-.415.096-.82.144-1.216.144Zm-1.84-4.986c-.084.188-.143.4-.175.634h3.21a2.162 2.162 0 0 0-.173-.778 1.277 1.277 0 0 0-.519-.605c-.217-.135-.489-.202-.815-.202-.366 0-.677.082-.934.245a1.578 1.578 0 0 0-.593.706Zm-8.522 4.54c.623.297 1.364.446 2.224.446.395 0 .8-.048 1.216-.144.425-.086.806-.22 1.142-.404.207-.105.355-.235.444-.389a.805.805 0 0 0 .104-.49.754.754 0 0 0-.163-.432.636.636 0 0 0-.415-.23c-.178-.039-.38-.005-.608.1a3.582 3.582 0 0 1-.86.274 4.469 4.469 0 0 1-.815.087c-.692 0-1.216-.173-1.572-.519-.256-.255-.417-.616-.483-1.08h4.367c.228 0 .4-.044.52-.13.118-.097.177-.236.177-.418 0-.548-.079-1.043-.237-1.485a2.98 2.98 0 0 0-.697-1.138 3.002 3.002 0 0 0-1.097-.72c-.425-.174-.9-.26-1.423-.26-.722 0-1.37.158-1.942.475a3.313 3.313 0 0 0-1.32 1.297c-.316.548-.475 1.187-.475 1.917 0 .75.164 1.403.49 1.96.336.547.81.975 1.423 1.282Zm.21-3.906h3.21a2.16 2.16 0 0 0-.173-.778 1.277 1.277 0 0 0-.519-.605c-.217-.135-.49-.202-.815-.202-.366 0-.677.082-.934.245a1.578 1.578 0 0 0-.593.706c-.085.188-.144.4-.177.634Zm-6.59 4.323c-.376 0-.662-.096-.86-.288-.198-.192-.296-.466-.296-.821V4.453c0-.356.093-.625.281-.807.198-.192.47-.288.816-.288.356 0 .627.096.815.288.188.182.282.451.282.807v.259c.143-.346.356-.63.637-.85.406-.317.93-.495 1.572-.533.247-.02.435.043.563.187.139.135.213.36.223.677.02.298-.045.534-.193.707-.138.173-.376.278-.712.317l-.34.028c-.564.048-.984.207-1.26.476-.268.269-.401.658-.401 1.167v2.68c0 .356-.099.63-.297.822-.188.192-.464.288-.83.288Zm-8.978-.302c.207.202.5.302.875.302.75 0 1.126-.394 1.126-1.181V6.355h3.648c.296 0 .524-.077.682-.23.158-.154.237-.37.237-.649 0-.278-.08-.49-.237-.634-.158-.154-.386-.23-.682-.23H2.609v-2.48h3.974c.296 0 .519-.071.667-.215.158-.154.237-.375.237-.663 0-.279-.079-.49-.237-.634-.148-.154-.37-.23-.667-.23h-5.07c-.386 0-.683.1-.89.302-.208.202-.312.49-.312.864v7.94c0 .385.1.678.297.88Z" clip-rule="evenodd"/><defs><linearGradient id="a" x1="61.273" x2="5.443" y1="-.019" y2="23.646" gradientUnits="userSpaceOnUse"><stop stop-color="#FF7920"/><stop offset="1" stop-color="#EA0000"/></linearGradient></defs></svg>